<?xml version="1.0" encoding="UTF-8"?>
<svg id="Camada_2" data-name="Camada 2" xmlns="http://www.w3.org/2000/svg"
  xmlns:xlink="http://www.w3.org/1999/xlink" viewBox="0 0 576.6 147.47">
  <defs>
    <style>
      .cls-1 {
      fill: #e75113;
      }

      .cls-2 {
      fill: #58585a;
      }

      .cls-3 {
      fill: url(#linear-gradient);
      }
    </style>
    <linearGradient id="linear-gradient" x1="0" y1="73.73" x2="147.47" y2="73.73"
      gradientUnits="userSpaceOnUse">
      <stop offset="0" stop-color="#fabb00" />
      <stop offset="1" stop-color="#e53517" />
    </linearGradient>
  </defs>
  <g id="logo">
    <g>
      <path class="cls-1"
        d="M251.77,60.41c1.01-1.01,2.13-1.81,3.34-2.44h-31.83v10.51h24.63c.35-3.08,1.6-5.8,3.87-8.07Z" />
      <path class="cls-1"
        d="M466.66,108.4c1.01-1.01,2.13-1.81,3.34-2.44h-36.73v10.51h29.52c.35-3.08,1.6-5.8,3.87-8.07Z" />
      <g>
        <path class="cls-2"
          d="M135.09,58.01h-39.51c-3.34,0-6.23,1.19-8.59,3.55-2.35,2.36-3.55,5.24-3.55,8.59v29.2h10.51v-15.09h42.77v15.09h10.51v-29.2c0-3.34-1.2-6.23-3.55-8.59-2.36-2.36-5.25-3.55-8.59-3.55ZM93.94,70.15c0-.47.14-.81.48-1.15.34-.34.68-.48,1.15-.48h39.51c.47,0,.81.14,1.15.48.34.34.48.68.48,1.15v3.52h-42.77v-3.52Z" />
        <path class="cls-2"
          d="M206.67,87.3c0,.47-.14.81-.48,1.15-.34.34-.68.48-1.15.48h-39.51c-.47,0-.81-.14-1.15-.48-.34-.34-.48-.68-.48-1.15v-29.29h-10.51v29.29c0,3.34,1.2,6.23,3.55,8.59,2.36,2.36,5.25,3.55,8.59,3.55h39.51c3.34,0,6.23-1.19,8.59-3.55,2.35-2.36,3.55-5.24,3.55-8.59v-29.29h-10.51v29.29Z" />
        <path class="cls-2"
          d="M345,57.98h-39.51c-3.35,0-6.24,1.21-8.59,3.58-2.35,2.36-3.55,5.23-3.55,8.55v17.19c0,3.34,1.2,6.23,3.55,8.59,2.36,2.36,5.25,3.55,8.59,3.55h39.51c3.34,0,6.23-1.19,8.59-3.55,2.35-2.36,3.55-5.24,3.55-8.59v-17.19c0-3.32-1.2-6.2-3.54-8.54-2.36-2.38-5.25-3.59-8.59-3.59ZM303.86,70.11c0-.47.14-.81.48-1.15.34-.34.68-.48,1.15-.48h39.51c.47,0,.81.14,1.15.48.34.34.48.68.48,1.15v17.19c0,.47-.14.81-.48,1.15-.34.34-.68.48-1.15.48h-39.51c-.47,0-.81-.14-1.15-.48-.34-.34-.48-.68-.48-1.15v-17.19Z" />
        <path class="cls-2"
          d="M261.25,73.67v-3.54c0-.47.14-.81.48-1.15.34-.34.68-.48,1.15-.48h24.27v-10.51h-24.27c-3.34,0-6.23,1.19-8.59,3.55-2.35,2.36-3.55,5.24-3.55,8.59v29.29h10.51v-25.75Z" />
        <path class="cls-2"
          d="M86.98,109.55c-2.35,2.36-3.55,5.23-3.55,8.55v17.19c0,3.34,1.2,6.23,3.55,8.59,2.36,2.36,5.25,3.55,8.59,3.55h51.64v-10.51h-51.64c-.47,0-.81-.14-1.15-.48-.34-.34-.48-.68-.48-1.15v-3.11h53.27v-10.51h-53.27v-3.58c0-.47.14-.81.48-1.15.34-.34.68-.48,1.15-.48h51.64v-10.51h-51.64c-3.35,0-6.24,1.21-8.59,3.58Z" />
        <polygon class="cls-2"
          points="212.45 106.26 185.38 120.6 158.06 106.2 153.28 115.72 174.02 126.62 153.34 137.54 158.11 147.08 185.38 132.65 212.47 146.95 217.18 137.41 196.75 126.62 217.18 115.78 212.45 106.26" />
        <path class="cls-2"
          d="M275.02,106h-39.51c-3.34,0-6.23,1.19-8.59,3.55-2.35,2.36-3.55,5.24-3.55,8.59v29.29h10.51v-15.24h41.14c3.34,0,6.23-1.19,8.59-3.55,2.35-2.36,3.55-5.24,3.55-8.59v-1.91c0-3.34-1.2-6.23-3.55-8.59-2.36-2.36-5.25-3.55-8.59-3.55ZM233.88,118.13c0-.47.14-.81.48-1.15.34-.34.68-.48,1.15-.48h39.51c.47,0,.81.14,1.15.48.34.34.48.68.48,1.15v1.91c0,.47-.14.81-.48,1.15-.34.34-.68.48-1.15.48h-41.14v-3.54Z" />
        <path class="cls-2"
          d="M305.48,136.92c-.47,0-.81-.14-1.15-.48-.34-.34-.48-.68-.48-1.15v-3.11h53.48v-14.08c0-3.32-1.2-6.2-3.54-8.54-2.25-2.27-4.98-3.48-8.19-3.59h-40.59c-3.14.11-5.88,1.32-8.12,3.58-2.35,2.36-3.55,5.23-3.55,8.55v17.19c0,3.34,1.2,6.23,3.55,8.59,2.25,2.25,4.98,3.44,8.19,3.55h52.26v-10.51h-51.86ZM303.86,121.67v-3.58c0-.47.14-.81.48-1.15.34-.34.68-.48,1.15-.48h39.72c.47,0,.81.14,1.15.48.34.34.48.68.48,1.15v3.58h-42.98Z" />
        <path class="cls-2"
          d="M572.01,124.37c-2.42-1.95-5.24-2.93-8.39-2.93h-37.27c-1.32,0-1.77-.44-2.05-.86-.13-.19-.22-.44-.32-.91-.07-.22-.1-.47-.1-.73,0-1.32.44-1.78.76-1.99.27-.16.58-.29.91-.36.3-.06.6-.1.83-.12h49.2v-10.51h-49.23c-3.12,0-5.94.98-8.38,2.92-3.05,2.41-4.6,5.81-4.6,10.09,0,3.14.97,5.96,2.89,8.38,2.43,3.05,5.82,4.59,10.08,4.59h37.16c.32.01.64.06.91.11.34.08.63.2.84.33.39.25.83.71.83,2.06,0,.27-.03.55-.08.79-.07.33-.18.61-.36.86-.25.38-.71.83-2.03.83h-49.23v10.51h49.23c4.29,0,7.68-1.55,10.09-4.6,1.91-2.44,2.89-5.25,2.89-8.37,0-4.28-1.55-7.68-4.59-10.07Z" />
        <path class="cls-2"
          d="M421.28,130.48c.85-.51,1.68-1.1,2.42-1.85,2.35-2.36,3.55-5.24,3.55-8.59v-1.91c0-3.34-1.2-6.23-3.55-8.59-2.36-2.36-5.25-3.55-8.59-3.55h-39.51c-3.34,0-6.23,1.19-8.59,3.55-2.35,2.36-3.55,5.24-3.55,8.59v29.29h10.51v-15.24h34.67l14.37,15.28,14.81-.03-16.55-16.95ZM373.97,121.67v-3.54c0-.47.14-.81.48-1.15.34-.34.68-.48,1.15-.48h39.51c.47,0,.81.14,1.15.48.34.34.48.68.48,1.15v1.91c0,.47-.14.81-.48,1.15-.34.34-.68.48-1.15.48h-41.14Z" />
        <path class="cls-2"
          d="M476.14,121.66v-3.54c0-.47.14-.81.48-1.15.34-.34.68-.48,1.15-.48h29.26v-10.51h-29.26c-3.34,0-6.23,1.19-8.59,3.55-2.35,2.36-3.55,5.24-3.55,8.59v29.29h10.51v-25.75Z" />
      </g>
      <path class="cls-3"
        d="M147.47,25.3C131.84,9.67,110.24,0,86.39,0,38.68,0,0,38.68,0,86.39c0,23.85,9.67,45.45,25.3,61.08l7.33-7.33h0s9.4-9.4,9.4-9.4l.09-.34-12.57,3.37c-9.48-11.36-15.61-25.61-16.89-41.23l11.14-6.43-11.1-6.41c1.4-15.62,7.65-29.84,17.24-41.14l12.22,3.27-3.26-12.18c11.37-9.52,25.64-15.68,41.3-16.98l6.26,10.84,6.25-10.83c15.66,1.33,29.92,7.52,41.27,17.07l-3.25,12.12.22-.06,9.48-9.48h0l7.03-7.03Z" />
    </g>
  </g>
</svg>