<svg width="121" height="115" viewBox="0 0 121 115" fill="none" xmlns="http://www.w3.org/2000/svg">
<path d="M101.036 58.1987C101.042 58.2067 101.051 58.2134 101.056 58.2241C110.471 69.3107 109.204 86.0067 98.2297 95.5147C87.2497 105.023 70.719 103.743 61.3043 92.6561C58.823 89.7347 57.0883 86.4201 56.075 82.9521C56.5497 82.2027 56.9723 81.4081 57.3283 80.5627C60.819 72.3134 57.027 62.7681 48.859 59.2427C40.6883 55.7174 31.2363 59.5481 27.747 67.7987C24.2563 76.0481 28.0497 85.5947 36.219 89.1187C39.235 90.4214 42.427 90.7161 45.4297 90.1587C46.0857 91.7801 46.8563 93.3747 47.747 94.9347C58.4083 113.583 82.019 119.972 100.483 109.205C118.948 98.4387 125.275 74.5934 114.614 55.9467C112.007 51.3867 108.626 47.5667 104.735 44.5467C104.236 49.2281 102.995 53.8401 101.036 58.1987Z" fill="white"/>
<path d="M27.6186 19.925C25.0106 24.4823 23.4279 29.353 22.7812 34.265C27.0466 32.361 31.6199 31.141 36.3386 30.6757C36.3439 30.665 36.3452 30.6543 36.3492 30.6437C41.1466 16.865 56.0986 9.62499 69.7426 14.473C83.3826 19.321 90.5506 34.4183 85.7519 48.1957C84.4879 51.829 82.5119 55.0023 80.0452 57.6236C79.1666 57.5823 78.2732 57.6103 77.3706 57.721C68.5506 58.7917 62.2599 66.881 63.3226 75.789C64.3852 84.697 72.3946 91.0477 81.2146 89.977C90.0333 88.9037 96.3239 80.813 95.2626 71.9063C94.8692 68.617 93.5279 65.677 91.5466 63.329C92.6106 61.9463 93.5946 60.473 94.4839 58.9143C105.144 40.2663 98.8172 16.4223 80.3546 5.65432C74.2746 2.11032 67.6359 0.424994 61.0866 0.423661C47.7439 0.422327 34.7692 7.41699 27.6186 19.925Z" fill="white"/>
<path d="M50.953 29.1217C48.3277 31.1097 46.4784 33.7524 45.4544 36.659C43.737 36.4217 41.9837 36.2964 40.2024 36.2964C18.881 36.2964 1.5957 53.7537 1.5957 75.287C1.5957 96.8204 18.881 114.276 40.2024 114.276C45.413 114.276 50.381 113.227 54.917 111.338C51.1517 108.555 47.817 105.167 45.0584 101.271C45.0477 101.275 45.0384 101.278 45.0264 101.28C30.813 103.971 17.129 94.515 14.465 80.1604C11.801 65.8044 21.1624 51.9844 35.377 49.2937C39.125 48.5844 42.833 48.723 46.313 49.571C46.717 50.3617 47.189 51.127 47.7344 51.863C53.0637 59.0417 63.145 60.4964 70.253 55.115C77.3597 49.7324 78.801 39.5497 73.4717 32.3724C70.3117 28.1164 65.481 25.8737 60.5904 25.8737C57.2317 25.8737 53.8464 26.9297 50.953 29.1217Z" fill="white"/>
</svg>
